#!OML:ASF F:\VICON\USERDATA\INSTALL\rory3\rory3.ASF
:FULLY-SPECIFIED
:DEGREES
702
root 5.03722 16.5627 1.99972 6.23425 -13.7644 -6.90917
lowerback 20.7235 -0.841755 4.35658
upperback 4.24039 -0.0915613 1.48406
thorax -6.96941 -0.134992 -0.853149
lowerneck -14.262 -0.442619 -2.444
upperneck 37.2084 0.44761 -1.45613
head 15.4714 -0.433494 -0.128624
rclavicle 3.20043e-014 -1.39149e-014
rhumerus -36.6967 0.351085 -8.67647
rradius 28.3726
rwrist 11.9313
rhand -23.6559 -50.3992
rfingers 7.12502
rthumb 2.80965 -80.3604
lclavicle 3.20043e-014 -1.39149e-014
lhumerus -33.6744 -1.50743 2.17308
lradius 23.1225
lwrist 10.9386
lhand -24.7143 -33.3176
lfingers 7.12502
lthumb 1.78753 -3.34532
rfemur -103.144 0.775028 27.767
rtibia 99.7688
rfoot 49.3267 5.15857
rtoes -3.41502
lfemur -31.0019 2.27499 -23.5574
ltibia 49.2049
lfoot -21.2092 10.5553
ltoes 15.7401
703
root 5.04059 16.5613 1.99908 6.29402 -13.7281 -6.90374
lowerback 20.6357 -0.871582 4.38754
upperback 4.2043 -0.127891 1.47309
thorax -6.96394 -0.153208 -0.873399
lowerneck -14.1131 -0.425832 -2.44672
upperneck 37.1735 0.45529 -1.42865
head 15.4181 -0.426263 -0.114486
rclavicle -1.88845e-014 -2.66371e-014
rhumerus -36.7234 0.433009 -8.72531
rradius 28.4817
rwrist 11.8492
rhand -24.132 -50.4192
rfingers 7.12502
rthumb 2.34988 -80.386
lclavicle -1.88845e-014 -2.66371e-014
lhumerus -33.7621 -1.59114 2.17012
lradius 23.169
lwrist 11.0848
lhand -24.7103 -33.558
lfingers 7.12502
lthumb 1.79141 -3.58579
rfemur -103.21 0.722659 27.7553
rtibia 99.7644
rfoot 49.3228 4.98614
rtoes -3.33959
lfemur -31.0736 2.14095 -23.5752
ltibia 49.2366
lfoot -21.2156 10.6386
ltoes 15.7151
704
root 5.04235 16.5595 2.00271 6.25722 -13.7525 -6.86611
lowerback 20.5467 -0.868154 4.37839
upperback 4.23513 -0.134299 1.44346
thorax -6.88353 -0.154613 -0.899402
lowerneck -14.0831 -0.411409 -2.37143
upperneck 37.1832 0.478182 -1.49787
head 15.416 -0.415795 -0.153451
rclavicle -2.22639e-014 1.07344e-014
rhumerus -36.7366 0.418565 -8.75573
rradius 28.472
rwrist 11.8296
rhand -24.4212 -50.4507
rfingers 7.12502
rthumb 2.07054 -80.4204
lclavicle -2.22639e-014 1.07344e-014
lhumerus -33.7295 -1.58685 2.16192
lradius 23.1559
lwrist 11.1695
lhand -24.5972 -33.7944
lfingers 7.12502
lthumb 1.90057 -3.82317
rfemur -103.205 0.718791 27.7073
rtibia 99.7948
rfoot 49.2538 5.03946
rtoes -3.56778
lfemur -31.0108 2.07789 -23.624
ltibia 49.2537
lfoot -21.2766 10.7245
ltoes 15.6164
705
root 5.04318 16.5603 2.00708 6.22806 -13.8719 -6.97644
lowerback 20.4629 -0.829102 4.47422
upperback 4.3167 -0.0724368 1.44346
thorax -6.74716 -0.123577 -0.970921
lowerneck -14.1747 -0.386865 -2.23317
upperneck 37.1688 0.525233 -1.62695
head 15.4313 -0.394212 -0.224985
rclavicle 3.70733e-014 -3.53837e-014
rhumerus -36.7651 0.253065 -8.74513
rradius 28.448
rwrist 11.8009
rhand -24.5685 -50.3372
rfingers 7.12502
rthumb 1.92835 -80.3082
lclavicle 3.70733e-014 -3.53837e-014
lhumerus -33.6533 -1.39536 2.11753
lradius 23.1322
lwrist 11.1223
lhand -24.436 -34.117
lfingers 7.12502
lthumb 2.05624 -4.14714
rfemur -103.088 0.868415 27.7936
rtibia 99.7695
rfoot 49.1504 5.06114
rtoes -4.03303
lfemur -30.9353 2.15767 -23.5118
ltibia 49.2716
lfoot -21.327 10.7604
ltoes 15.7275
706
root 5.04594 16.5637 2.00836 6.21905 -14.0113 -7.05369
lowerback 20.4675 -0.793825 4.51625
upperback 4.31818 -0.0171418 1.45376
thorax -6.74515 -0.0977423 -0.997898
lowerneck -14.1219 -0.330359 -2.10789
upperneck 37.1052 0.626061 -1.78034
head 15.3882 -0.35434 -0.294493
rclavicle -7.85199e-015 -8.74653e-015
rhumerus -36.7021 0.234814 -8.7243
rradius 28.4357
rwrist 11.6682
rhand -24.4058 -50.1332
rfingers 7.12502
rthumb 2.0854 -80.1027
lclavicle -7.85199e-015 -8.74653e-015
lhumerus -33.7549 -1.41087 2.12614
lradius 23.2591
lwrist 11.0826
lhand -24.5457 -33.8286
lfingers 7.12502
lthumb 1.95029 -3.85773
rfemur -102.984 1.00423 27.8481
rtibia 99.7199
rfoot 49.241 4.34077
rtoes -3.71377
lfemur -30.9 2.2431 -23.4426
ltibia 49.2813
lfoot -21.3538 10.7706
ltoes 16.0451
707
root 5.04809 16.5643 2.00569 6.21336 -14.0981 -7.0673
lowerback 20.52 -0.762371 4.48985
upperback 4.28902 0.0232453 1.46323
thorax -6.80277 -0.0791941 -0.982691
lowerneck -13.9188 -0.305631 -2.0798
upperneck 36.9452 0.668257 -1.84377
head 15.2618 -0.338083 -0.316693
rclavicle -2.48481e-014 -1.47101e-014
rhumerus -36.6595 0.170143 -8.63642
rradius 28.4054
rwrist 11.5754
rhand -24.0804 -50.0423
rfingers 7.12502
rthumb 2.39972 -80.0086
lclavicle -2.48481e-014 -1.47101e-014
lhumerus -33.8308 -1.4714 2.17476
lradius 23.3796
lwrist 11.038
lhand -24.7615 -33.4956
lfingers 7.12502
lthumb 1.74193 -3.52301
rfemur -102.944 1.09459 27.8462
rtibia 99.675
rfoot 49.3695 3.68202
rtoes -2.98956
lfemur -30.9158 2.29416 -23.4326
ltibia 49.3032
lfoot -21.3551 10.7584
ltoes 16.026
708
root 5.04924 16.5626 2.00305 6.19714 -14.1616 -7.09105
lowerback 20.5105 -0.730619 4.48513
upperback 4.34329 0.0603256 1.46499
thorax -6.73684 -0.0596544 -0.988026
lowerneck -13.9404 -0.307424 -2.05296
upperneck 36.8706 0.659571 -1.84849
head 15.2304 -0.33725 -0.32398
rclavicle -2.3556e-014 1.23246e-014
rhumerus -36.6671 -0.128706 -8.53378
rradius 28.3367
rwrist 11.717
rhand -24.1157 -50.1449
rfingers 7.12502
rthumb 2.36558 -80.1115
lclavicle -2.3556e-014 1.23246e-014
lhumerus -33.8674 -1.30738 2.16312
lradius 23.4295
lwrist 10.9621
lhand -24.7149 -33.8475
lfingers 7.12502
lthumb 1.78689 -3.87526
rfemur -102.911 1.18618 27.8606
rtibia 99.6277
rfoot 49.1508 4.93152
rtoes -4.52054
lfemur -30.9085 2.36197 -23.4115
ltibia 49.3271
lfoot -21.3635 10.7511
ltoes 15.6958
709
root 5.04968 16.5589 1.99928 6.17667 -14.2198 -7.06122
lowerback 20.5352 -0.699551 4.42642
upperback 4.40101 0.0843949 1.43191
thorax -6.68613 -0.0458959 -0.996815
lowerneck -14.1444 -0.306492 -1.95321
upperneck 36.9192 0.643123 -1.85967
head 15.3022 -0.333167 -0.350392
rclavicle -2.68359e-015 1.66979e-014
rhumerus -36.6545 -0.342925 -8.5624
rradius 28.2521
rwrist 11.7919
rhand -24.2837 -50.3586
rfingers 7.12502
rthumb 2.20341 -80.3269
lclavicle -2.68359e-015 1.66979e-014
lhumerus -33.9382 -1.1454 2.09769
lradius 23.5144
lwrist 10.9809
lhand -24.6412 -34.0212
lfingers 7.12502
lthumb 1.85813 -4.04956
rfemur -102.918 1.25645 27.8255
rtibia 99.5866
rfoot 49.4642 3.51795
rtoes -2.98102
lfemur -30.901 2.44413 -23.4461
ltibia 49.35
lfoot -21.4005 10.7088
ltoes 15.6633
710
root 5.04952 16.5579 1.99585 6.16577 -14.2534 -7.07376
lowerback 20.6273 -0.676896 4.40048
upperback 4.37659 0.113337 1.41315
thorax -6.76001 -0.0332537 -1.0094
lowerneck -14.1246 -0.313343 -1.86039
upperneck 36.9208 0.609248 -1.87636
head 15.298 -0.336748 -0.379608
rclavicle 1.22253e-014 1.90833e-014
rhumerus -36.666 -0.309461 -8.63658
rradius 28.2536
rwrist 11.6682
rhand -23.9997 -50.7548
rfingers 7.12502
rthumb 2.47767 -80.7202
lclavicle 1.22253e-014 1.90833e-014
lhumerus -33.9255 -1.11942 2.03885
lradius 23.5336
lwrist 10.9824
lhand -24.6677 -33.3521
lfingers 7.12502
lthumb 1.83255 -3.38023
rfemur -102.895 1.31301 27.8336
rtibia 99.5437
rfoot 49.3584 4.44962
rtoes -3.77081
lfemur -30.9025 2.53331 -23.4259
ltibia 49.3775
lfoot -21.4452 10.6382
ltoes 15.7942
711
root 5.04996 16.5598 1.99882 6.12658 -14.2778 -7.134
lowerback 20.6518 -0.671035 4.44722
upperback 4.34808 0.134357 1.42379
thorax -6.80276 -0.0249645 -1.0297
lowerneck -14.0185 -0.320428 -1.85611
upperneck 36.9646 0.5847 -1.85408
head 15.2939 -0.343909 -0.375315
rclavicle 3.37934e-015 -1.98785e-015
rhumerus -36.729 0.0120686 -8.73563
rradius 28.412
rwrist 11.424
rhand -23.6552 -51.092
rfingers 7.12502
rthumb 2.81037 -81.0532
lclavicle 3.37934e-015 -1.98785e-015
lhumerus -33.8938 -1.15423 2.00889
lradius 23.5269
lwrist 10.9126
lhand -24.6195 -32.3034
lfingers 7.12502
lthumb 1.87906 -2.33189
rfemur -102.801 1.33868 27.89
rtibia 99.5385
rfoot 49.4331 3.30587
rtoes -2.45994
lfemur -30.8296 2.63875 -23.3601
ltibia 49.4082
lfoot -21.5188 10.5449
ltoes 15.9557
712
root 5.05015 16.5587 1.99995 6.0994 -14.2998 -7.17261
lowerback 20.6304 -0.66233 4.47197
upperback 4.35622 0.150158 1.43613
thorax -6.78166 -0.017278 -1.03462
lowerneck -14.0162 -0.336134 -1.92665
upperneck 37.0218 0.545898 -1.75508
head 15.3207 -0.357406 -0.328122
rclavicle -1.13307e-014 1.66979e-014
rhumerus -36.763 0.339018 -8.83109
rradius 28.4729
rwrist 11.2574
rhand -23.6982 -51.107
rfingers 7.12502
rthumb 2.76884 -81.0687
lclavicle -1.13307e-014 1.66979e-014
lhumerus -33.9102 -1.21507 2.01108
lradius 23.552
lwrist 10.9028
lhand -24.5158 -32.187
lfingers 7.12502
lthumb 1.97917 -2.21642
rfemur -102.742 1.36561 27.9291
rtibia 99.5136
rfoot 49.0824 4.40531
rtoes -3.77679
lfemur -30.8239 2.74411 -23.3114
ltibia 49.4595
lfoot -21.5615 10.3893
ltoes 16.0473
713
root 5.04955 16.5562 1.99827 6.08731 -14.351 -7.22028
lowerback 20.6315 -0.651635 4.47408
upperback 4.36418 0.164874 1.4472
thorax -6.77286 -0.0100179 -1.02769
lowerneck -13.9759 -0.329662 -1.94912
upperneck 36.994 0.544126 -1.71239
head 15.2971 -0.355089 -0.305951
rclavicle 7.45443e-015 -4.37326e-015
rhumerus -36.697 0.44302 -8.85414
rradius 28.3716
rwrist 11.2724
rhand -23.7815 -51.1466
rfingers 7.12502
rthumb 2.68841 -81.1094
lclavicle 7.45443e-015 -4.37326e-015
lhumerus -33.9628 -1.35059 2.02557
lradius 23.5492
lwrist 10.9932
lhand -24.4331 -32.331
lfingers 7.12502
lthumb 2.0591 -2.36122
rfemur -102.703 1.44134 27.9835
rtibia 99.4577
rfoot 49.4149 3.18581
rtoes -1.84461
lfemur -30.8614 2.87436 -23.2511
ltibia 49.5247
lfoot -21.5889 10.3
ltoes 15.992
714
root 5.04972 16.5543 1.9985 6.08312 -14.435 -7.26941
lowerback 20.6165 -0.627101 4.48401
upperback 4.37225 0.197458 1.44826
thorax -6.75448 0.00583135 -1.04069
lowerneck -13.9774 -0.313297 -1.91241
upperneck 37.0117 0.558554 -1.71634
head 15.306 -0.344883 -0.311999
rclavicle -2.31584e-014 -1.19271e-014
rhumerus -36.6975 0.518418 -8.86912
rradius 28.4346
rwrist 11.199
rhand -23.5055 -51.2903
rfingers 7.12502
rthumb 2.95495 -81.2495
lclavicle -2.31584e-014 -1.19271e-014
lhumerus -34.0022 -1.3816 1.9863
lradius 23.5511
lwrist 10.9661
lhand -24.4228 -32.1331
lfingers 7.12502
lthumb 2.06906 -2.16336
rfemur -102.675 1.53121 28.0375
rtibia 99.4154
rfoot 49.2486 4.03824
rtoes -2.43109
lfemur -30.8792 3.04873 -23.2041
ltibia 49.5903
lfoot -21.6522 10.2681
ltoes 15.9359
715
root 5.0507 16.5544 1.99816 6.08195 -14.4702 -7.33417
lowerback 20.5944 -0.609982 4.53214
upperback 4.38942 0.228403 1.45858
thorax -6.72223 0.0206814 -1.06498
lowerneck -14.012 -0.326981 -1.93183
upperneck 37.0267 0.519748 -1.64781
head 15.321 -0.354733 -0.286311
rclavicle -2.23633e-014 5.56597e-015
rhumerus -36.7685 0.555221 -8.84468
rradius 28.5719
rwrist 11.2096
rhand -22.8949 -51.436
rfingers 7.12502
rthumb 3.54463 -81.3862
lclavicle -2.23633e-014 5.56597e-015
lhumerus -34.0259 -1.22717 1.88392
lradius 23.5509
lwrist 10.7289
lhand -24.2351 -32.1326
lfingers 7.12502
lthumb 2.2503 -2.16469
rfemur -102.621 1.5774 28.098
rtibia 99.3498
rfoot 49.5094 2.81087
rtoes -0.957313
lfemur -30.8924 3.21081 -23.1402
ltibia 49.6451
lfoot -21.7153 10.1891
ltoes 15.7371
